<mxfile host="app.diagrams.net" modified="2024-03-06T18:24:31.259Z" agent="Mozilla/5.0 (Windows NT 10.0; Win64; x64; rv:123.0) Gecko/20100101 Firefox/123.0" etag="XeFKSzjn3DbeuPIP9QxE" version="24.0.2" type="device">
  <diagram name="Page-1" id="lPCZcJjtXdMUmB_ePEyh">
    <mxGraphModel dx="879" dy="461" grid="1" gridSize="10" guides="1" tooltips="1" connect="1" arrows="1" fold="1" page="1" pageScale="1" pageWidth="850" pageHeight="1100" math="0" shadow="0">
      <root>
        <mxCell id="0" />
        <mxCell id="1" parent="0" />
        <mxCell id="Bej-YAzr9rDOT7XCVjzM-1" style="edgeStyle=orthogonalEdgeStyle;rounded=0;orthogonalLoop=1;jettySize=auto;html=1;entryX=0;entryY=0.25;entryDx=0;entryDy=0;" edge="1" parent="1">
          <mxGeometry relative="1" as="geometry">
            <Array as="points">
              <mxPoint x="240" y="359.67" />
              <mxPoint x="240" y="359.67" />
            </Array>
            <mxPoint x="195.6214886532175" y="359.67" as="sourcePoint" />
            <mxPoint x="365" y="359.67" as="targetPoint" />
          </mxGeometry>
        </mxCell>
        <mxCell id="Bej-YAzr9rDOT7XCVjzM-2" style="edgeStyle=orthogonalEdgeStyle;rounded=0;orthogonalLoop=1;jettySize=auto;html=1;entryX=0;entryY=0.75;entryDx=0;entryDy=0;exitX=0.833;exitY=0.873;exitDx=0;exitDy=0;exitPerimeter=0;" edge="1" parent="1" source="Bej-YAzr9rDOT7XCVjzM-3">
          <mxGeometry relative="1" as="geometry">
            <Array as="points">
              <mxPoint x="250" y="390" />
            </Array>
            <mxPoint x="195.6214886532175" y="390" as="sourcePoint" />
            <mxPoint x="365" y="390" as="targetPoint" />
          </mxGeometry>
        </mxCell>
        <mxCell id="Bej-YAzr9rDOT7XCVjzM-3" value="User" style="ellipse;whiteSpace=wrap;html=1;" vertex="1" parent="1">
          <mxGeometry x="80" y="320" width="120" height="80" as="geometry" />
        </mxCell>
        <mxCell id="Bej-YAzr9rDOT7XCVjzM-4" style="edgeStyle=orthogonalEdgeStyle;rounded=0;orthogonalLoop=1;jettySize=auto;html=1;entryX=0.5;entryY=0;entryDx=0;entryDy=0;" edge="1" parent="1" source="Bej-YAzr9rDOT7XCVjzM-5" target="Bej-YAzr9rDOT7XCVjzM-3">
          <mxGeometry relative="1" as="geometry">
            <Array as="points">
              <mxPoint x="700" y="280" />
              <mxPoint x="140" y="280" />
            </Array>
          </mxGeometry>
        </mxCell>
        <mxCell id="Bej-YAzr9rDOT7XCVjzM-5" value="Server" style="ellipse;whiteSpace=wrap;html=1;" vertex="1" parent="1">
          <mxGeometry x="640" y="320" width="120" height="80" as="geometry" />
        </mxCell>
        <mxCell id="Bej-YAzr9rDOT7XCVjzM-6" style="edgeStyle=orthogonalEdgeStyle;rounded=0;orthogonalLoop=1;jettySize=auto;html=1;entryX=0;entryY=0.5;entryDx=0;entryDy=0;" edge="1" parent="1" source="Bej-YAzr9rDOT7XCVjzM-7" target="Bej-YAzr9rDOT7XCVjzM-5">
          <mxGeometry relative="1" as="geometry" />
        </mxCell>
        <mxCell id="Bej-YAzr9rDOT7XCVjzM-7" value="Tabela users" style="shape=process;whiteSpace=wrap;html=1;backgroundOutline=1;" vertex="1" parent="1">
          <mxGeometry x="365" y="330" width="120" height="60" as="geometry" />
        </mxCell>
        <mxCell id="Bej-YAzr9rDOT7XCVjzM-8" value="Login" style="text;html=1;align=center;verticalAlign=middle;whiteSpace=wrap;rounded=0;" vertex="1" parent="1">
          <mxGeometry x="240" y="330" width="60" height="30" as="geometry" />
        </mxCell>
        <mxCell id="Bej-YAzr9rDOT7XCVjzM-9" value="Hasło (hash)" style="text;html=1;align=center;verticalAlign=middle;whiteSpace=wrap;rounded=0;" vertex="1" parent="1">
          <mxGeometry x="235" y="360" width="70" height="30" as="geometry" />
        </mxCell>
        <mxCell id="Bej-YAzr9rDOT7XCVjzM-10" value="Powtarzalność danych&lt;br&gt;(email lub login już istnieje)" style="text;html=1;align=center;verticalAlign=middle;whiteSpace=wrap;rounded=0;" vertex="1" parent="1">
          <mxGeometry x="490" y="330" width="150" height="30" as="geometry" />
        </mxCell>
        <mxCell id="Bej-YAzr9rDOT7XCVjzM-11" value="Rejestracja / Odmowa" style="text;html=1;align=center;verticalAlign=middle;whiteSpace=wrap;rounded=0;" vertex="1" parent="1">
          <mxGeometry x="354" y="250" width="142" height="30" as="geometry" />
        </mxCell>
        <mxCell id="Bej-YAzr9rDOT7XCVjzM-12" value="&lt;font style=&quot;font-size: 40px;&quot;&gt;DFD Rejestracja&lt;br&gt;&lt;/font&gt;" style="text;html=1;align=center;verticalAlign=middle;whiteSpace=wrap;rounded=0;" vertex="1" parent="1">
          <mxGeometry x="265" y="200" width="320" height="30" as="geometry" />
        </mxCell>
        <mxCell id="Bej-YAzr9rDOT7XCVjzM-13" style="edgeStyle=orthogonalEdgeStyle;rounded=0;orthogonalLoop=1;jettySize=auto;html=1;entryX=0;entryY=0.25;entryDx=0;entryDy=0;exitX=0.821;exitY=0.116;exitDx=0;exitDy=0;exitPerimeter=0;" edge="1" parent="1" source="Bej-YAzr9rDOT7XCVjzM-3">
          <mxGeometry relative="1" as="geometry">
            <Array as="points">
              <mxPoint x="182" y="329" />
            </Array>
            <mxPoint x="195.6214886532175" y="330" as="sourcePoint" />
            <mxPoint x="365" y="330" as="targetPoint" />
          </mxGeometry>
        </mxCell>
        <mxCell id="Bej-YAzr9rDOT7XCVjzM-14" value="Email" style="text;html=1;align=center;verticalAlign=middle;whiteSpace=wrap;rounded=0;" vertex="1" parent="1">
          <mxGeometry x="240" y="300" width="60" height="30" as="geometry" />
        </mxCell>
      </root>
    </mxGraphModel>
  </diagram>
</mxfile>
